<svg viewBox="0 0 27 28" fill="none" xmlns="http://www.w3.org/2000/svg">
<path d="M17.0266 1.2372C17.393 0.870841 17.9869 0.870842 18.3533 1.2372L25.8712 8.75508C26.2375 9.12143 26.2375 9.71541 25.8712 10.0818L22.1122 13.8407L13.2677 4.99614L17.0266 1.2372Z" fill="white"/>
<path d="M4.42188 13.8325L13.2664 22.6771L9.5075 26.436C9.14115 26.8024 8.54717 26.8024 8.18081 26.436L0.662933 18.9181C0.296578 18.5518 0.296579 17.9578 0.662934 17.5915L4.42188 13.8325Z" fill="white"/>
<path d="M13.2764 5.00439L4.4318 13.849L0.672855 10.09C0.306501 9.72367 0.306501 9.12969 0.672856 8.76333L8.19074 1.24545C8.55709 0.879098 9.15107 0.879098 9.51743 1.24545L13.2764 5.00439Z" fill="white"/>
<path d="M25.8796 17.6039C26.246 17.9702 26.246 18.5642 25.8796 18.9306L18.3617 26.4484C17.9954 26.8148 17.4014 26.8148 17.0351 26.4484L13.2761 22.6895L22.1207 13.8449L25.8796 17.6039Z" fill="white"/>
</svg>
