<svg viewBox="0 0 197 24" xmlns:xlink="http://www.w3.org/1999/xlink" width="197" height="24" fill="none" xmlns="http://www.w3.org/2000/svg" data-sentry-element="Logo" data-sentry-source-file="Footer.tsx" class="css-1fmysww"><g clip-path="url(#clip0_4509_50685)" fill="none"><path d="M15.1505 0.67785C15.5248 0.303484 16.1318 0.303485 16.5062 0.67785L23.0648 7.23649C23.4392 7.61085 23.4392 8.21782 23.0648 8.59219L19.7855 11.8715L11.8711 3.95717L15.1505 0.67785Z" fill="#FFFFFF"></path><path d="M3.95853 11.8652L11.8729 19.7796L8.59355 23.0589C8.21918 23.4333 7.61221 23.4333 7.23785 23.0589L0.679212 16.5003C0.304846 16.1259 0.304846 15.5189 0.679212 15.1446L3.95853 11.8652Z" fill="#FFFFFF"></path><path d="M11.8807 3.96387L3.96635 11.8782L0.687024 8.59888C0.312659 8.22452 0.312659 7.61755 0.687025 7.24319L7.24566 0.684549C7.62003 0.310183 8.227 0.310183 8.60136 0.684549L11.8807 3.96387Z" fill="#FFFFFF"></path><path d="M23.0725 15.1552C23.4469 15.5295 23.4469 16.1365 23.0725 16.5109L16.5139 23.0695C16.1395 23.4439 15.5325 23.4439 15.1582 23.0695L11.8789 19.7902L19.7932 11.8758L23.0725 15.1552Z" fill="#FFFFFF"></path><mask id="mask0_4509_50685" maskUnits="userSpaceOnUse" x="32" y="3" width="134" height="18" style="mask-type: luminance;" fill="none"><path d="M165.542 3.91309H32.9492V20.1179H165.542V3.91309Z" fill="#FFFFFF"></path></mask><g mask="url(#mask0_4509_50685)" fill="none"><path d="M32.9492 3.91309H44.8253V6.49753H35.8735V11.098H44.259V13.6145H35.8735V19.7801H32.9492V3.91309Z" fill="#FFFFFF"></path><path d="M45.9375 13.7736C45.9375 10.1924 48.7485 7.42676 52.6241 7.42676C56.4998 7.42676 59.3107 10.1924 59.3107 13.7736C59.3107 17.3547 56.5224 20.1204 52.6241 20.1204C48.7258 20.1204 45.9375 17.3774 45.9375 13.7736ZM56.4998 13.7736C56.4998 11.5063 54.9367 9.89794 52.6241 9.89794C50.3115 9.89794 48.7485 11.5063 48.7485 13.7736C48.7485 16.0409 50.3115 17.6492 52.6241 17.6492C54.9367 17.6492 56.4998 16.0409 56.4998 13.7736Z" fill="#FFFFFF"></path><path d="M60.8984 7.76559H63.5734V8.92087H63.6188C64.4342 8.06007 65.5916 7.53906 66.996 7.53906C67.6756 7.53906 68.2646 7.65232 68.9236 7.8562L68.3119 10.418C67.6777 10.2368 67.2473 10.1688 66.613 10.1688C64.8688 10.1688 63.7114 11.3467 63.7114 13.7273V19.7797H60.9005V7.76559H60.8984Z" fill="#FFFFFF"></path><path d="M75.6275 10.17V16.1771C75.6275 16.9473 75.8993 17.1964 76.896 17.1964H78.9821V19.7809H76.6695C73.9038 19.7809 72.8165 18.7162 72.8165 16.313V10.17H70.0508V7.76681H72.8165V4.86523H75.6275V7.76681H79.5031V10.17H75.6275Z" fill="#FFFFFF"></path><path d="M81.0703 14.7477V7.7666H83.8813V14.2946C83.8813 16.3807 85.0592 17.5813 87.168 17.5813C89.2767 17.5813 90.6132 16.2222 90.6132 14.2946V7.7666H93.4242V19.7786H90.7038V18.5327H90.6585C89.6845 19.5521 88.2326 20.1205 86.4431 20.1205C83.1111 20.1205 81.0724 18.1023 81.0724 14.7498L81.0703 14.7477Z" fill="#FFFFFF"></path><path d="M95.4609 7.76655H98.1812V9.01243H98.2265C99.2006 7.99307 100.743 7.42676 102.374 7.42676C105.797 7.42676 108.109 9.60346 108.109 12.7748V19.7786H105.298V13.2052C105.298 11.1644 104.007 9.94119 101.921 9.94119C99.8349 9.94119 98.2718 11.2777 98.2718 13.2279V19.7786H95.4609V7.76655Z" fill="#FFFFFF"></path><path d="M109.58 13.8189C109.58 10.0565 112.278 7.42676 116.04 7.42676C119.803 7.42676 122.455 10.2151 122.455 13.8415V14.6797H112.369C112.459 16.5598 113.977 17.7851 116.176 17.7851C117.807 17.7851 118.987 17.1282 120.097 15.7443L121.977 17.4206C120.641 19.1422 118.759 20.1183 116.197 20.1183C112.095 20.1183 109.578 17.6245 109.578 13.8168L109.58 13.8189ZM119.689 12.641C119.531 10.9626 118.058 9.76203 116.086 9.76203C114.113 9.76203 112.595 10.9626 112.414 12.641H119.689Z" fill="#FFFFFF"></path><path d="M124.066 3.91309H132.565C135.33 3.91309 137.256 5.65733 137.256 8.12851C137.256 9.51032 136.622 10.6223 135.557 11.1887V11.234C136.961 11.8229 137.847 13.1821 137.847 14.9284C137.847 18.1471 135.899 19.7781 131.976 19.7781H124.066V3.91309ZM132.044 10.3958C133.561 10.3958 134.334 9.71625 134.334 8.42299C134.334 7.19976 133.541 6.49547 132.044 6.49547H126.99V10.3958H132.044ZM132.18 17.173C134.085 17.173 134.923 16.4482 134.923 14.9284C134.923 13.4086 134.062 12.729 132.202 12.729H126.99V17.171H132.18V17.173Z" fill="#FFFFFF"></path><path d="M138.98 13.7736C138.98 10.1924 141.791 7.42676 145.667 7.42676C149.542 7.42676 152.353 10.1924 152.353 13.7736C152.353 17.3547 149.565 20.1204 145.667 20.1204C141.768 20.1204 138.98 17.3774 138.98 13.7736ZM149.542 13.7736C149.542 11.5063 147.979 9.89794 145.667 9.89794C143.354 9.89794 141.791 11.5063 141.791 13.7736C141.791 16.0409 143.354 17.6492 145.667 17.6492C147.979 17.6492 149.542 16.0409 149.542 13.7736Z" fill="#FFFFFF"></path><path d="M156.705 13.683L151.674 7.7666H155.187L158.497 11.9367H158.542L161.897 7.7666H165.41L160.379 13.683L165.546 19.7807H162.055L158.542 15.452H158.497L155.029 19.7807H151.516L156.705 13.683Z" fill="#FFFFFF"></path></g><path d="M194 8C195.657 8 197 9.34315 197 11V17C197 18.6569 195.657 20 194 20H171C169.343 20 168 18.6569 168 17V11C168 9.34315 169.343 8 171 8H194ZM171 11V16.4961H174.684C175.996 16.4961 176.53 15.8976 176.53 14.9707C176.53 14.2079 176.005 13.6993 174.905 13.6582V13.5762C175.906 13.5351 176.275 13.0345 176.275 12.3291C176.275 11.4677 175.685 11 174.495 11H171ZM177.021 11V16.4961H181.902V15.1104H178.563V14.4209H181.779V13.043H178.563V12.3867H181.902V11H177.021ZM182.381 11V12.3867H184.326V16.4961H185.868V12.3867H187.804V11H182.381ZM189.235 11L186.864 16.4961H188.595L189.021 15.4795H191.63L192.049 16.4961H193.821L191.442 11H189.235ZM174.487 14.3467C174.864 14.3467 174.971 14.4212 174.971 14.7246C174.971 15.0361 174.856 15.1103 174.487 15.1104H172.534V14.3467H174.487ZM190.383 12.3945L190.744 13.3213L191.064 14.0928H189.604L189.924 13.3213L190.277 12.3945H190.383ZM174.29 12.3867C174.61 12.3867 174.733 12.485 174.733 12.7393C174.733 12.9935 174.643 13.084 174.331 13.084H172.534V12.3867H174.29Z" fill="#FFFFFF"></path></g><defs><clipPath id="clip0_4509_50685"><rect width="197" height="24" fill="white"></rect></clipPath></defs></svg>